<svg width="120" height="40" viewBox="0 0 120 40" fill="none" xmlns="http://www.w3.org/2000/svg">
  <rect width="40" height="40" rx="20" fill="url(#paint0_linear)" />
  <path d="M20 10C14.48 10 10 14.48 10 20C10 25.52 14.48 30 20 30C25.52 30 30 25.52 30 20C30 14.48 25.52 10 20 10ZM20 28C15.59 28 12 24.41 12 20C12 15.59 15.59 12 20 12C24.41 12 28 15.59 28 20C28 24.41 24.41 28 20 28Z" fill="white"/>
  <path d="M20 15C18.34 15 17 16.34 17 18C17 19.66 18.34 21 20 21C21.66 21 23 19.66 23 18C23 16.34 21.66 15 20 15ZM20 19C19.45 19 19 18.55 19 18C19 17.45 19.45 17 20 17C20.55 17 21 17.45 21 18C21 18.55 20.55 19 20 19Z" fill="white"/>
  <path d="M20 22C17.33 22 15 23.34 15 25V26H25V25C25 23.34 22.67 22 20 22Z" fill="white"/>
  <path d="M50 15H45V25H47V21H50C51.66 21 53 19.66 53 18C53 16.34 51.66 15 50 15ZM50 19H47V17H50C50.55 17 51 17.45 51 18C51 18.55 50.55 19 50 19Z" fill="#8B5CF6"/>
  <path d="M59 15C56.24 15 54 17.24 54 20C54 22.76 56.24 25 59 25C61.76 25 64 22.76 64 20C64 17.24 61.76 15 59 15ZM59 23C57.34 23 56 21.66 56 20C56 18.34 57.34 17 59 17C60.66 17 62 18.34 62 20C62 21.66 60.66 23 59 23Z" fill="#8B5CF6"/>
  <path d="M70 15C68.34 15 67 16.34 67 18C67 18.73 67.41 19.38 68 19.73V25H70V19.73C70.59 19.38 71 18.73 71 18C71 16.34 69.66 15 68 15H70Z" fill="#8B5CF6"/>
  <path d="M78 15C75.24 15 73 17.24 73 20C73 22.76 75.24 25 78 25C80.76 25 83 22.76 83 20C83 17.24 80.76 15 78 15ZM78 23C76.34 23 75 21.66 75 20C75 18.34 76.34 17 78 17C79.66 17 81 18.34 81 20C81 21.66 79.66 23 78 23Z" fill="#8B5CF6"/>
  <path d="M89 15H84V25H86V21H89C90.66 21 92 19.66 92 18C92 16.34 90.66 15 89 15ZM89 19H86V17H89C89.55 17 90 17.45 90 18C90 18.55 89.55 19 89 19Z" fill="#8B5CF6"/>
  <path d="M98 15H93V25H98C100.76 25 103 22.76 103 20C103 17.24 100.76 15 98 15ZM98 23H95V17H98C99.66 17 101 18.34 101 20C101 21.66 99.66 23 98 23Z" fill="#8B5CF6"/>
  <path d="M109 15C106.24 15 104 17.24 104 20C104 22.76 106.24 25 109 25C111.76 25 114 22.76 114 20C114 17.24 111.76 15 109 15ZM109 23C107.34 23 106 21.66 106 20C106 18.34 107.34 17 109 17C110.66 17 112 18.34 112 20C112 21.66 110.66 23 109 23Z" fill="#8B5CF6"/>
  <path d="M120 15H115V25H117V21H120C121.66 21 123 19.66 123 18C123 16.34 121.66 15 120 15ZM120 19H117V17H120C120.55 17 121 17.45 121 18C121 18.55 120.55 19 120 19Z" fill="#8B5CF6"/>
  <defs>
    <linearGradient id="paint0_linear" x1="0" y1="0" x2="40" y2="40" gradientUnits="userSpaceOnUse">
      <stop stop-color="#8B5CF6"/>
      <stop offset="1" stop-color="#3B82F6"/>
    </linearGradient>
  </defs>
</svg>